<svg xmlns="http://www.w3.org/2000/svg" viewBox="0 0 100 100" width="100" height="100" class="iconPanthereHead">
<g id="panthere-head" fill="currentColor"><path d="M44 46.07V46a5.74 5.74 0 0 0-3.52-2.72h-.14a11.6 11.6 0 0 0-2.5-.47 15.62 15.62 0 0 1-6.43-2.38.75.75 0 0 0-.84 1.24 17.29 17.29 0 0 0 2 1.11c0 .1-.09.2-.12.31a6.09 6.09 0 0 0 4.15 7.51 6.46 6.46 0 0 0 1.78.25 5.9 5.9 0 0 0 4.69-2.28 10.33 10.33 0 0 1-.18 3 .75.75 0 0 0 .47 1 .76.76 0 0 0 .24 0 .75.75 0 0 0 .71-.51 11.57 11.57 0 0 0 .23-4.1 4.94 4.94 0 0 0-.54-1.89zm-4.47-1.49a1.28 1.28 0 0 1 0 .52 1.3 1.3 0 1 1-2.53-.71 1.27 1.27 0 0 1 .09-.17l.6.07a10.89 10.89 0 0 1 1.86.3zm.94 4.25a4.67 4.67 0 0 1-3.48.32 4.59 4.59 0 0 1-3.14-5.67v-.12a15.83 15.83 0 0 0 1.7.55v.06A2.8 2.8 0 1 0 41 45.14a3.86 3.86 0 0 1 1.48 1.32 4.27 4.27 0 0 1-1.99 2.37zM67.57 43.07c0-.11-.08-.2-.12-.31a17.29 17.29 0 0 0 2-1.11.75.75 0 0 0-.84-1.24 15.62 15.62 0 0 1-6.43 2.38 11.59 11.59 0 0 0-2.52.47h-.12A5.74 5.74 0 0 0 56 46v.05a4.94 4.94 0 0 0-.54 1.95 11.57 11.57 0 0 0 .23 4.1.75.75 0 0 0 .71.51.75.75 0 0 0 .72-1 10.27 10.27 0 0 1-.19-3 5.9 5.9 0 0 0 4.69 2.28 6.46 6.46 0 0 0 1.78-.25 6.09 6.09 0 0 0 4.17-7.57zm-5.3 1.22l.6-.07a1.26 1.26 0 0 1 .09.17 1.3 1.3 0 0 1-.89 1.6 1.27 1.27 0 0 1-1.63-1.41 10.89 10.89 0 0 1 1.84-.29zm.73 4.86a4.67 4.67 0 0 1-3.48-.32 4.27 4.27 0 0 1-2-2.38A3.86 3.86 0 0 1 59 45.14a2.84 2.84 0 0 0 .07.37 2.8 2.8 0 0 0 2.69 2A2.8 2.8 0 0 0 64.41 44v-.06a15.83 15.83 0 0 0 1.7-.55v.12A4.59 4.59 0 0 1 63 49.15z"></path><path d="M46.33 44.89c-.16-2.25-2-3.68-5.15-3.92a11.57 11.57 0 0 1-4.68-1.69.75.75 0 0 0-.83 1.25 12.92 12.92 0 0 0 5.4 1.93c1.35.1 3.63.57 3.77 2.53a.75.75 0 0 0 .75.7h.05a.75.75 0 0 0 .69-.8zM59.31 42.46a12.92 12.92 0 0 0 5.4-1.93.75.75 0 0 0-.83-1.25A11.58 11.58 0 0 1 59.19 41c-3.11.24-5 1.67-5.15 3.92a.75.75 0 0 0 .7.8h.05a.75.75 0 0 0 .75-.7c.14-2.02 2.46-2.45 3.77-2.56zM34.64 37.25a.75.75 0 1 0 1.16-.95l-3.19-3.92a.75.75 0 1 0-1.16.95zM38 35.08a.75.75 0 0 0 .7.48.75.75 0 0 0 .7-1l-1.41-3.68a.75.75 0 1 0-1.4.54zM42 35.19a.75.75 0 0 0 .75-.69l.25-3.18a.75.75 0 0 0-.69-.81.74.74 0 0 0-.81.69l-.25 3.19a.75.75 0 0 0 .75.8z"></path><path d="M95.31 61c-3.9-1.24-13.08-1.13-20.54-.79 5-6.31 5-12.41 4.11-15.28-.68-2.15-1.73-7.57-.39-9.68a1.56 1.56 0 0 1 1.18-.77c1.76-.23 2.08-2.06 2.33-3.52a8.38 8.38 0 0 1 .35-1.54 4.25 4.25 0 0 1 1.22-1.37 10.59 10.59 0 0 0 3.18-4.23c1.59-3.91-.54-5.84-.63-5.92a.73.73 0 0 0-.28-.13h-.14a6.16 6.16 0 0 0-4.81.73c-.68.33-1.52.73-2.76 1.25a6.88 6.88 0 0 1-8-1.32c-4.5-4.32-7.67-5.57-20.08-5.57s-15.54 1.26-20 5.57a6.88 6.88 0 0 1-8 1.32 51.69 51.69 0 0 1-2.76-1.25 6.16 6.16 0 0 0-4.81-.73h-.14a.73.73 0 0 0-.28.13c-.09.08-2.22 2-.63 5.92a10.59 10.59 0 0 0 3.18 4.23 4.26 4.26 0 0 1 1.22 1.37A8.4 8.4 0 0 1 18 31c.25 1.47.56 3.29 2.33 3.52a1.56 1.56 0 0 1 1.18.77c1.34 2.11.29 7.53-.39 9.68-.91 2.87-.87 9 4.11 15.28-7.46-.34-16.64-.45-20.54.79a.75.75 0 0 0 .46 1.43c4.09-1.3 15-1 21.18-.66h.25l.65.69c-7.68.11-12.89.64-15.5 1.58a.75.75 0 1 0 .51 1.41c2.58-.93 8.3-1.45 16.56-1.51.35.3.71.59 1.07.88-6.47.36-17 1.21-21 3a.75.75 0 0 0 .6 1.37c4.17-1.83 16.18-2.64 22.22-2.95l1 .72.1.07c-6.29.61-10.59 1.4-12.79 2.36a.75.75 0 0 0 .6 1.37c2.07-.91 6.45-1.69 12.72-2.28A19.94 19.94 0 0 0 34 74c1.63 4.32 3.86 5.38 6.46 5.6a5.67 5.67 0 0 0 1.52 1.81 15.18 15.18 0 0 0-3.39 4.47.75.75 0 0 0 1.4.54c.27-.7 1.08-2 3.29-4.19a10.86 10.86 0 0 0 2 .78 11.32 11.32 0 0 0-.92 3.43.75.75 0 0 0 .71.79.75.75 0 0 0 .75-.71 10.34 10.34 0 0 1 .91-3.17 19.89 19.89 0 0 0 6.54 0 10.5 10.5 0 0 1 .91 3.17.75.75 0 0 0 .75.71.75.75 0 0 0 .71-.79 11.32 11.32 0 0 0-.89-3.44 10.86 10.86 0 0 0 2-.78c2.21 2.19 3 3.49 3.29 4.19a.75.75 0 0 0 1.4-.54 15.18 15.18 0 0 0-3.39-4.47 5.67 5.67 0 0 0 1.52-1.81c2.6-.22 4.83-1.27 6.45-5.59a19.92 19.92 0 0 0 .65-5.45c6.27.59 10.66 1.37 12.72 2.28a.75.75 0 1 0 .6-1.37c-2.22-1-6.6-1.77-13-2.38l.8-.56.31-.22c6 .3 18.2 1.11 22.42 3a.75.75 0 0 0 .6-1.37c-4.06-1.78-14.61-2.62-21.07-3q.57-.43 1.11-.88c8.28.05 14 .57 16.59 1.51a.75.75 0 0 0 .51-1.41c-2.6-.94-7.81-1.47-15.5-1.58l.65-.69h.25c6.15-.31 17.09-.64 21.18.66a.75.75 0 0 0 .47-1.54zm-42 18.91a.75.75 0 1 0-1.3.75c.16.27.39.7.64 1.2a18.15 18.15 0 0 1-5.22 0c.35-.71.63-1.19.64-1.2a.75.75 0 1 0-1.3-.75c0 .06-.42.73-.87 1.66a7 7 0 0 1-3.58-2h2.43A6 6 0 0 0 50 76.43a6 6 0 0 0 5.29 3.13h2.43a7 7 0 0 1-3.58 2c-.45-.9-.83-1.56-.87-1.63zm17.1-17.26l-.08.06c-.84.7-1.77 1.38-2.68 2h-.78c.13-1.71.45-3.25 1.07-3.71a.75.75 0 0 0-.94-1.2c-1 .83-1.44 2.64-1.63 4.83h-.61a.73.73 0 0 0-.77.73.75.75 0 0 0 .73.77h.56v.74h-.18a.76.76 0 0 0-.81.68.75.75 0 0 0 .68.81h.21a20 20 0 0 1-.56 5.05c-1.41 3.75-3.1 4.54-5.55 4.66H55.29a4.54 4.54 0 0 1-4.53-4.46 5.51 5.51 0 0 1 1.16-.84c1-.64 2.47-1.52 1.93-2.79-.19-.44-.06-.65 1.66-1.82l.63-.43a2.48 2.48 0 0 0 1.3-2 2.08 2.08 0 0 0-.95-1.6.74.74 0 0 0-1 .22.76.76 0 0 0 .21 1c.08.06.26.23.27.37s-.17.41-.66.75l-.62.43c-1.63 1.1-2.91 2-2.2 3.57-.08.25-.89.74-1.33 1a10.22 10.22 0 0 0-1.13.77 10.22 10.22 0 0 0-1.13-.77 7.46 7.46 0 0 1-1.33-.93c.71-1.67-.58-2.54-2.2-3.65l-.62-.43c-.48-.34-.66-.61-.66-.75s.18-.31.26-.37a.75.75 0 0 0-.81-1.26 2.08 2.08 0 0 0-.95 1.6 2.48 2.48 0 0 0 1.3 2l.63.43c1.73 1.17 1.85 1.38 1.66 1.82-.54 1.28.89 2.15 1.93 2.79a10.47 10.47 0 0 1 1.16.77 4.54 4.54 0 0 1-4.54 4.52h-1.56c-3.72.09-6 .14-7.78-4.66a20.07 20.07 0 0 1-.56-5.05h.21a.75.75 0 1 0-.13-1.5h-.14v-.74h.56a.75.75 0 0 0 0-1.5h-.61c-.19-2.19-.58-4-1.63-4.83A.75.75 0 1 0 32.06 61c.62.49.91 2 1.06 3.71h-.95c-.85-.64-1.7-1.31-2.48-2a.73.73 0 0 0-.15-.14c-.26-.23-.52-.46-.76-.69l2.33.15h.06a.75.75 0 0 0 .06-1.5s-1.57-.12-4-.25c-5.44-6.19-5.58-12.2-4.72-14.92 0-.08 2.33-7.62.23-10.93a3.07 3.07 0 0 0-2.2-1.43c-.62-.08-.82-1-1-2.29a9.51 9.51 0 0 0-.44-1.84 5.37 5.37 0 0 0-1.63-1.95 9 9 0 0 1-2.78-3.67c-1-2.36-.23-3.66.1-4.08a3.19 3.19 0 0 1 2.07.54c.07.06 7.52 5.52 10.79 5.52H28c-3 2.15-4.76 4.9-4.76 7.59a.75.75 0 0 0 1.5 0c0-2.81 2.6-5.89 6.63-7.86a13.71 13.71 0 0 0 4.48-1.49.75.75 0 1 0-.73-1.31 15.48 15.48 0 0 1-7.56 1.58c-1.25 0-3.64-1.21-5.86-2.55a8.3 8.3 0 0 0 9.3-1.73c4-3.82 6.49-5.15 19-5.15s15 1.34 19 5.15a8.18 8.18 0 0 0 5.77 2.45 9.77 9.77 0 0 0 3.44-.68c-2.21 1.33-4.6 2.53-5.84 2.53a15.48 15.48 0 0 1-7.56-1.58.75.75 0 0 0-.73 1.31A13.72 13.72 0 0 0 68.59 25c4 2 6.63 5 6.63 7.86a.75.75 0 0 0 1.5 0c0-2.7-1.77-5.45-4.76-7.59h.44c3.27 0 10.72-5.46 10.79-5.52a3.19 3.19 0 0 1 2.06-.54c.33.43 1.05 1.73.1 4.08a9 9 0 0 1-2.78 3.67 5.37 5.37 0 0 0-1.63 1.95 9.49 9.49 0 0 0-.44 1.84c-.23 1.33-.42 2.21-1 2.29a3.07 3.07 0 0 0-2.25 1.45c-2.11 3.31.2 10.86.23 10.93.87 2.73.72 8.74-4.72 14.92-2.39.13-4 .25-4 .25a.75.75 0 0 0 .06 1.5h.06l2.33-.15c-.21.23-.52.47-.8.71z"></path><path d="M64.77 37.53a.75.75 0 0 0 .58-.28l3.19-3.92a.75.75 0 1 0-1.16-.95l-3.19 3.92a.75.75 0 0 0 .58 1.22zM61.07 35.51a.74.74 0 0 0 .27 0 .75.75 0 0 0 .7-.48l1.41-3.68a.75.75 0 1 0-1.4-.54l-1.41 3.68a.75.75 0 0 0 .43 1.02zM58 35.2a.75.75 0 0 0 .69-.81l-.25-3.19a.75.75 0 0 0-1.5.12l.25 3.19a.75.75 0 0 0 .81.69z"></path><circle cx="38.13" cy="69.84" r="1.05"></circle><circle cx="38.48" cy="73.41" r="1.05"></circle><circle cx="41.22" cy="75.76" r="1.05"></circle><circle cx="42.14" cy="72.11" r="1.05"></circle><circle cx="45.06" cy="73.95" r="1.05"></circle><circle cx="61.87" cy="69.84" r="1.05"></circle><circle cx="61.52" cy="73.41" r="1.05"></circle><circle cx="58.78" cy="75.76" r="1.05"></circle><circle cx="57.86" cy="72.11" r="1.05"></circle><circle cx="54.94" cy="73.95" r="1.05"></circle><path d="M53.56 52.5a.75.75 0 0 0-.81.69A9.21 9.21 0 0 1 50 58.58a9.16 9.16 0 0 1-2.73-5.4.75.75 0 0 0-1.5.12 11 11 0 0 0 3.73 6.86.75.75 0 0 0 .47.17.75.75 0 0 0 .47-.17 11 11 0 0 0 3.73-6.86.75.75 0 0 0-.61-.8zM40.37 55.2a.75.75 0 0 0-1 .27c-.2.35-.46.72-.73 1.11-1.34 1.94-3.36 4.88-.51 8a.75.75 0 0 0 1.1-1c-1.89-2.05-.93-3.82.64-6.1.29-.43.57-.83.79-1.21a.75.75 0 0 0-.29-1.07zM60.69 55.47a.75.75 0 1 0-1.3.75c.22.38.5.78.79 1.21 1.57 2.28 2.53 4.05.64 6.1a.75.75 0 1 0 1.1 1c2.85-3.09.83-6-.51-8-.25-.34-.51-.71-.72-1.06zM41.89 65a.75.75 0 0 0-1.43-.46 4.13 4.13 0 0 0 1.91 4.82.75.75 0 0 0 .75-1.3A2.62 2.62 0 0 1 41.89 65zM57.62 69.33a4.13 4.13 0 0 0 1.91-4.82.75.75 0 0 0-1.43.46A2.62 2.62 0 0 1 56.87 68a.75.75 0 0 0 .75 1.3zM52.88 65.15a3.83 3.83 0 0 1-5.77 0 .75.75 0 0 0-1.16 1 5.32 5.32 0 0 0 8.08 0 .75.75 0 0 0-1.16-1zM30.51 50.52a.75.75 0 1 0-.72 1.31c2.63 1.45 3.77 3.59 3.77 4.36a.75.75 0 0 0 1.5 0c0-1.55-1.7-4.1-4.55-5.67zM70.59 50.82a.75.75 0 0 0-1-.3C66.72 52.09 65 54.64 65 56.2a.75.75 0 0 0 1.5 0c0-.77 1.14-2.92 3.77-4.36a.75.75 0 0 0 .32-1.02z"></path></g></svg>